<svg xmlns="http://www.w3.org/2000/svg" width="26" height="26" fill="#FFFFFF" viewBox="0 -2 26 26" xmlns:v="https://vecta.io/nano">
  <path d="M15.049 3.993a7.97 7.97 0 0 1 2.55.416c-3.157 1.064-5.43 4.048-5.43 7.564s2.273 6.5 5.43 7.564a7.97 7.97 0 0 1-2.55.416 7.98 7.98 0 0 1 0-15.959z" fill="#e7e767"/>
  <path d="M14.104 3.996a8.033 8.033 0 0 1 .721.032c-4.063.366-7.267 3.781-7.267 7.939s3.185 7.574 7.269 7.939a8.089 8.089 0 0 1-.723.032c-4.403 0-7.972-3.569-7.972-7.971s3.569-7.971 7.972-7.971z" fill="#e8e841"/>
</svg>