<svg xmlns="http://www.w3.org/2000/svg" fill="#91C8FF" viewBox="0 -25 473.931 473.931" xmlns:v="https://vecta.io/nano">
  <path d="M254.946 0c21.254 0 41.693 3.488 60.778 9.919-75.252 25.357-129.446 96.501-129.446 180.304s54.193 154.947 129.446 180.304c-19.085 6.431-39.524 9.919-60.778 9.919-105.058 0-190.224-85.166-190.224-190.224S149.889 0 254.946 0z"/>
  <path d="M254.953.003a191.68 191.68 0 0 1 17.2.77c-96.95 8.74-172.93 90.22-172.93 189.45 0 99.25 76.01 180.74 172.99 189.45a193.02 193.02 0 0 1-17.26.77c-105.06 0-190.23-85.16-190.23-190.22S149.893.003 254.953.003z" fill="#91C8FF"/>
</svg>