<svg xmlns="http://www.w3.org/2000/svg" fill="#FFF" viewBox="0 0 52.026 52.026" xmlns:v="https://vecta.io/nano">
  <path d="M28.404 3.413a3.03 3.03 0 0 0-3.09.044.93.93 0 0 0-.13.093l-13.55 11.463H1a1 1 0 0 0-1 1v19c0 .266.105.52.293.707a1 1 0 0 0 .707.293l10.61-.005 13.543 12.44c.05.046.104.086.161.12.492.297 1.037.446 1.582.446a3.07 3.07 0 0 0 1.508-.402A3.12 3.12 0 0 0 30 45.857V6.169c0-1.161-.597-2.191-1.596-2.756zM28 45.857c0 .431-.217.81-.579 1.015-.155.087-.548.255-1 .026L13 34.569v-4.556a1 1 0 1 0-2 0v3.996l-9 .004v-17h9v4a1 1 0 1 0 2 0v-4.536l13.405-11.34c.461-.242.86-.07 1.016.018.362.205.579.584.579 1.014v39.688zM38.797 7.066a1.001 1.001 0 1 0-.643 1.895 17.48 17.48 0 0 1 11.872 16.553c0 7.483-4.762 14.136-11.849 16.554a1 1 0 0 0 .323 1.947c.107 0 .216-.017.323-.054a19.49 19.49 0 0 0 13.202-18.446A19.48 19.48 0 0 0 38.797 7.066zm4.229 18.447c0-5.972-4.009-11.302-9.749-12.962a1 1 0 1 0-.554 1.922 11.55 11.55 0 0 1 8.304 11.04 11.55 11.55 0 0 1-8.304 11.04A1 1 0 0 0 33 38.514a1.02 1.02 0 0 0 .277-.039c5.741-1.66 9.749-6.99 9.749-12.962z"/>
</svg>