<svg xmlns="http://www.w3.org/2000/svg" fill="#FFF" viewBox="0 -5 54 54" xmlns:v="https://vecta.io/nano">
  <path d="M46.414 26l7.293-7.293a1 1 0 0 0-1.414-1.414L45 24.586l-7.293-7.293a1 1 0 0 0-1.414 1.414L43.586 26l-7.293 7.293a1 1 0 0 0 0 1.414c.195.195.451.293.707.293s.512-.098.707-.293L45 27.414l7.293 7.293c.195.195.451.293.707.293s.512-.098.707-.293a1 1 0 0 0 0-1.414L46.414 26zM28.404 4.4a3.03 3.03 0 0 0-3.09.044.93.93 0 0 0-.13.093L11.634 16H1a1 1 0 0 0-1 1v19c0 .266.105.52.293.707A1 1 0 0 0 1 37l10.61-.005 13.543 12.44c.05.046.104.086.161.12.492.297 1.037.446 1.582.446a3.07 3.07 0 0 0 1.508-.402A3.12 3.12 0 0 0 30 46.844V7.156c0-1.161-.597-2.191-1.596-2.756zM28 46.844c0 .431-.217.81-.579 1.015-.155.087-.548.255-1 .026L13 35.556V31a1 1 0 1 0-2 0v3.996L2 35V18h9v4a1 1 0 1 0 2 0v-4.536l13.405-11.34c.46-.242.86-.07 1.016.018.362.205.579.583.579 1.014v39.688z"/>
</svg>