<svg xmlns="http://www.w3.org/2000/svg" width="26" height="26" viewBox="-1 -1 26 26" xmlns:v="https://vecta.io/nano"><g fill="#f7cf52"><circle cx="12.02" cy="12.049" r="3.939"/><path d="M11.747 16.749h.545v3.267h-.545zm0-12.668h.545v3.267h-.545zM6.579 17.876l-.386-.386 2.31-2.31.386.386zm8.957-8.957l-.386-.386 2.31-2.31.386.386zM4.053 11.777H7.32v.545H4.053zm12.668 0h3.267v.545H16.72zM8.504 8.918l-2.31-2.31.386-.386 2.31 2.31zm8.957 8.957l-2.31-2.31.386-.386 2.31 2.31z"/></g><path d="M275.111 373.92l-13.458-32.497 13.859-5.739 13.458 32.497zM162.692 102.518l-13.458-32.497 13.859-5.739 13.458 32.497zm.398 271.401l-13.859-5.739 13.458-32.497 13.859 5.739zm112.418-271.402l-13.858-5.739 13.458-32.497 13.858 5.739zM70.019 288.962l-5.739-13.858 32.497-13.458 5.739 13.858zM341.417 176.55l-5.739-13.858 32.497-13.458 5.739 13.858zm-264.638 0l-32.497-13.458 5.739-13.858 32.497 13.458zM368.18 288.964l-32.497-13.458 5.739-13.858 32.497 13.458z" fill="#f4581b"/></svg>