<svg xmlns="http://www.w3.org/2000/svg" viewBox="0 -20 473.931 473.931" xmlns:v="https://vecta.io/nano"><g fill="#f7cf52"><circle cx="219.097" cy="219.096" r="108.313"/><path d="M211.6 348.358h15V438.2h-15zM211.6 0h15v89.842h-15zM69.481 379.331l-10.607-10.606 63.527-63.527 10.606 10.607zm246.325-246.33L305.2 122.394l63.527-63.527 10.606 10.607zM0 211.6h89.842v15H0zm348.358 0H438.2v15h-89.842zm-225.961-78.597L58.871 69.477 69.477 58.87l63.527 63.527zM368.723 379.33l-63.527-63.527 10.606-10.606 63.527 63.527z"/></g><path d="M275.111 373.92l-13.458-32.497 13.859-5.739 13.458 32.497zM162.692 102.518l-13.458-32.497 13.859-5.739 13.458 32.497zm.398 271.401l-13.859-5.739 13.458-32.497 13.859 5.739zm112.418-271.402l-13.858-5.739 13.458-32.497 13.858 5.739zM70.019 288.962l-5.739-13.858 32.497-13.458 5.739 13.858zM341.417 176.55l-5.739-13.858 32.497-13.458 5.739 13.858zm-244.638 0l-32.497-13.458 5.739-13.858 32.497 13.458zM368.18 288.964l-32.497-13.458 5.739-13.858 32.497 13.458z" fill="#f4581b"/></svg>