<?xml version="1.0" standalone="no"?>
<!DOCTYPE svg PUBLIC "-//W3C//DTD SVG 20010904//EN"
 "http://www.w3.org/TR/2001/REC-SVG-20010904/DTD/svg10.dtd">
<svg version="1.0" xmlns="http://www.w3.org/2000/svg"
 width="700.000000pt" height="700.000000pt" viewBox="0 0 700.000000 700.000000"
 preserveAspectRatio="xMidYMid meet">
<metadata>
Created by potrace 1.14, written by Peter Selinger 2001-2017
</metadata>
<g transform="translate(0.000000,700.000000) scale(0.100000,-0.100000)"
fill="#000000" stroke="none">
<path d="M2705 6979 c-83 -23 -84 -24 -110 -33 -11 -5 -33 -13 -50 -19 -16 -5
-75 -32 -129 -59 -344 -170 -576 -457 -641 -793 -3 -16 -9 -46 -12 -65 -14
-73 -7 -389 12 -510 2 -14 7 -59 10 -100 4 -41 8 -77 10 -80 2 -3 -85 -5 -193
-5 -171 -1 -260 -8 -387 -31 -48 -9 -172 -52 -225 -79 -58 -29 -150 -116 -175
-165 -42 -81 -44 -109 -44 -689 0 -591 1 -607 48 -703 19 -38 55 -83 170 -213
23 -26 332 -381 500 -574 31 -36 63 -72 71 -81 8 -9 55 -63 105 -120 49 -58
92 -107 95 -110 3 -3 66 -75 139 -160 177 -205 193 -219 274 -251 20 -8 27
-18 27 -37 1 -15 1 -381 1 -814 l0 -787 137 -69 c147 -74 323 -148 492 -205
103 -35 342 -101 409 -112 19 -3 37 -8 41 -10 3 -2 17 -6 31 -9 13 -2 65 -13
114 -25 91 -20 114 -25 215 -42 102 -17 204 -24 370 -24 168 1 305 11 400 30
42 9 66 13 106 19 21 4 67 13 101 21 35 8 78 17 96 20 17 3 39 8 47 10 8 2 29
7 45 9 349 60 696 183 950 336 l84 50 0 783 c0 430 1 794 1 809 0 22 11 32 65
63 58 32 65 39 66 68 0 18 2 43 4 57 2 14 6 72 10 130 3 58 8 126 10 150 2 25
7 88 10 140 3 52 8 115 10 140 2 25 7 86 10 135 3 50 8 115 10 145 3 30 7 89
10 130 6 82 12 166 20 275 5 73 12 163 20 288 5 75 12 173 20 267 3 30 7 96
10 146 3 50 7 111 10 135 2 24 6 89 10 144 3 55 8 116 10 135 2 19 7 80 10
135 3 55 8 123 10 150 3 28 7 91 10 140 3 50 7 110 10 135 4 48 11 143 31 430
10 145 10 265 0 355 -39 352 -255 663 -589 849 -109 61 -284 120 -452 152 -22
4 -571 9 -1220 10 -1146 2 -1182 2 -1250 -17z"/>
</g>
</svg>
