<?xml version="1.0" standalone="no"?>
<!DOCTYPE svg PUBLIC "-//W3C//DTD SVG 20010904//EN"
 "http://www.w3.org/TR/2001/REC-SVG-20010904/DTD/svg10.dtd">
<svg version="1.0" xmlns="http://www.w3.org/2000/svg"
 width="700.000000pt" height="700.000000pt" viewBox="0 0 700.000000 700.000000"
 preserveAspectRatio="xMidYMid meet">
<metadata>
Created by potrace 1.14, written by Peter Selinger 2001-2017
</metadata>
<g transform="translate(0.000000,700.000000) scale(0.100000,-0.100000)"
fill="#000000" stroke="none">
<path d="M3220 6769 c-996 -87 -1900 -625 -2454 -1459 -694 -1044 -728 -2405
-87 -3483 270 -454 660 -849 1107 -1123 913 -560 2046 -638 3031 -208 516 225
981 598 1326 1063 607 817 794 1910 497 2890 -165 541 -449 1005 -861 1406
-515 500 -1143 802 -1869 900 -139 19 -544 27 -690 14z m-450 -1078 c31 -24
44 -52 107 -222 39 -107 72 -198 72 -204 1 -5 -97 -46 -217 -89 -119 -43 -221
-80 -227 -82 -15 -6 -147 368 -147 415 1 49 24 95 59 118 15 10 76 37 137 60
126 48 159 49 216 4z m1909 -498 c69 -31 137 -66 150 -78 35 -34 38 -99 8
-150 -13 -22 -28 -39 -33 -38 -37 9 -119 45 -260 113 l-165 79 25 50 c52 101
96 105 275 24z m-755 -198 c298 -44 573 -145 805 -295 307 -198 510 -429 671
-762 282 -584 281 -1248 -1 -1825 -100 -203 -213 -365 -369 -527 -342 -354
-767 -566 -1255 -626 -130 -16 -390 -13 -525 5 -404 56 -812 244 -1073 494
-500 480 -723 1198 -586 1891 79 398 271 758 559 1050 408 412 946 630 1520
615 80 -2 194 -11 254 -20z m-2324 -845 c22 -11 40 -22 40 -23 0 -24 -191
-427 -202 -427 -4 0 -29 10 -53 21 -95 45 -98 88 -15 271 33 73 72 143 86 156
32 28 91 29 144 2z"/>
<path d="M4366 3290 l-569 -208 -40 29 c-75 54 -155 61 -237 19 -50 -26 -86
-73 -101 -135 -7 -28 -14 -51 -15 -53 -1 -2 -54 -23 -119 -47 -64 -24 -123
-51 -130 -62 -30 -38 -13 -97 33 -114 21 -8 48 -2 149 33 103 36 126 41 141
30 136 -98 316 -45 353 104 10 37 18 49 44 59 17 8 274 102 570 210 297 108
549 202 561 210 57 37 23 136 -46 134 -14 -1 -281 -95 -594 -209z"/>
</g>
</svg>
